<svg width="116" height="138" viewBox="0 0 116 138" fill="none" xmlns="http://www.w3.org/2000/svg">
<rect width="114" height="136" transform="translate(1 1)" fill="white"/>
<path d="M1 1V137H18.5V1H1Z" fill="white"/>
<path d="M1 1V137H18.5V1H1Z" fill="#1045CA"/>
<path d="M103.5 1L115 11M103.5 1V11H115M103.5 1H18.5M115 11V137H18.5M18.5 1H1V137H18.5M18.5 1V137" stroke="#1045CA"/>
<path d="M68.8218 92L75.6505 102.504H61L68.8218 92Z" fill="#D9D9D9"/>
<path d="M68.8218 92L75.6505 102.504H61L68.8218 92Z" fill="#1045CA"/>
<path d="M95.3377 92.2323L104 102.504H88.8791L95.3377 92.2323Z" fill="#1045CA"/>
<path d="M75.6505 102.504L68.8218 92L82.1631 92.2385L75.6505 102.504Z" fill="#5887CD"/>
<path d="M82.1698 129L88.8791 102.504H104L82.1698 129Z" fill="#0E3AAB"/>
<path d="M82.1698 129L75.6505 102.504H88.8791L82.1698 129Z" fill="#4C71CF"/>
<path d="M82.1698 129L61 102.504H75.6505L82.1698 129Z" fill="#0E3AAB"/>
<path d="M88.8791 102.504L82.1631 92.2385L95.3377 92.2323L88.8791 102.504Z" fill="#5887CD"/>
<path d="M82.1631 92.2385L88.8791 102.504H75.6505L82.1631 92.2385Z" fill="#ADC3E5"/>
</svg>
