<svg width="128" height="128" viewBox="0 0 128 128" fill="none" xmlns="http://www.w3.org/2000/svg">
<g clip-path="url(#clip0_49_2107)">
<path d="M121.576 49.4197H119.927C119.5 49.4365 119.097 49.6176 118.801 49.9251C118.506 50.2326 118.341 50.6427 118.341 51.0693C118.341 51.4958 118.506 51.9059 118.801 52.2134C119.097 52.5209 119.5 52.702 119.927 52.7188H121.576V54.3687C121.592 54.795 121.773 55.1982 122.081 55.4938C122.389 55.7895 122.799 55.9546 123.225 55.9546C123.652 55.9546 124.062 55.7895 124.369 55.4938C124.677 55.1982 124.858 54.795 124.875 54.3687V52.7188H126.524C126.95 52.7017 127.353 52.5204 127.648 52.2129C127.943 51.9055 128.108 51.4957 128.108 51.0693C128.108 50.643 127.943 50.2332 127.648 49.9257C127.353 49.6182 126.95 49.437 126.524 49.4198H124.875V47.7707C124.858 47.3445 124.677 46.9412 124.369 46.6456C124.062 46.3499 123.652 46.1848 123.225 46.1848C122.799 46.1848 122.389 46.3499 122.081 46.6456C121.773 46.9412 121.592 47.3445 121.576 47.7707V49.4198V49.4197ZM0 23.918C0 24.6566 0.293401 25.3649 0.815658 25.8872C1.33792 26.4094 2.04625 26.7028 2.78483 26.7028C3.52342 26.7028 4.23175 26.4094 4.75401 25.8872C5.27626 25.3649 5.56966 24.6566 5.56966 23.918C5.56966 23.1794 5.27626 22.4711 4.75401 21.9488C4.23175 21.4266 3.52342 21.1332 2.78483 21.1332C2.04625 21.1332 1.33792 21.4266 0.815658 21.9488C0.293401 22.4711 0 23.1794 0 23.918Z" fill="#F4F4F4"/>
<path d="M106.839 91.349L92.4939 57.3347H34.2134L19.8681 91.349H19.4932V119.992H107.212V91.349H106.839Z" fill="#F8F8F8"/>
<path d="M107.212 119.992H19.4932V91.349H19.8689L34.2134 57.3347H92.4922L106.838 91.349H107.111L107.213 92.1543V119.992H107.212ZM21.1362 118.382H105.565L105.525 92.461L91.3913 58.9469H35.3098L21.1363 92.5558V118.381L21.1362 118.382Z" fill="#CCCCCC"/>
<path d="M34.1203 79.6135L20.886 117.994L22.5897 118.6L35.8248 80.2174L34.1211 79.6128L34.1203 79.6135ZM91.1941 79.6135L104.428 117.994L102.724 118.6L89.4895 80.2174L91.1941 79.6128V79.6135Z" fill="#CCCCCC"/>
<path d="M54.2155 90.7521H19.4932V119.993H107.212V90.7521H72.49C72.5019 91.9596 72.2744 93.1575 71.8205 94.2765C71.3667 95.3955 70.6955 96.4135 69.8459 97.2715C68.9962 98.1296 67.9849 98.8107 66.8704 99.2756C65.7559 99.7405 64.5603 99.9798 63.3528 99.9798C62.1452 99.9798 60.9496 99.7405 59.8352 99.2756C58.7207 98.8107 57.7094 98.1296 56.8597 97.2715C56.0101 96.4135 55.3389 95.3955 54.885 94.2765C54.4312 93.1575 54.2036 91.9596 54.2155 90.7521Z" fill="white"/>
<path d="M107.212 119.992H19.4932V90.7521H54.1839L54.2463 91.507C54.6297 96.2073 58.6307 99.8905 63.3532 99.8905C68.0766 99.8905 72.0768 96.2099 72.4602 91.507L72.5199 90.7521H107.212V119.993H107.212V119.992ZM21.1362 118.348H105.565V92.3967H74.0058C73.2082 97.5779 68.6659 101.534 63.3498 101.534C58.0337 101.534 53.4913 97.5796 52.6937 92.3967H21.1363V118.347L21.1362 118.348Z" fill="#CCCCCC"/>
<path d="M33.4167 57.3354H91.8969V82.3975H33.4167V57.3354Z" fill="#F4F4F4"/>
<path d="M91.8969 82.3975H33.4167V57.3354H91.8969V82.3975ZM35.0614 80.787H90.2522V58.946H35.0614V80.787Z" fill="#CCCCCC"/>
<path d="M55.7639 72.5356C56.9781 71.8808 58.1804 71.2041 59.3701 70.5057C59.8424 70.2094 60.0107 69.5604 59.7485 69.0428C59.4872 68.5245 58.8911 68.3255 58.4044 68.5936C57.2353 69.2798 56.0537 69.9446 54.8603 70.5877C54.5375 70.7627 54.3257 71.1087 54.3043 71.4972C54.283 71.8858 54.4555 72.2572 54.7569 72.4708C55.0575 72.6859 55.441 72.7099 55.7639 72.5356ZM62.8135 68.3451C64.018 67.6432 65.2048 66.9114 66.3729 66.1504C66.4857 66.0785 66.5828 65.9846 66.6586 65.8742C66.7343 65.7639 66.787 65.6395 66.8135 65.5084C66.8401 65.3772 66.8399 65.2421 66.8131 65.111C66.7862 64.98 66.7332 64.8556 66.6573 64.7455C66.4994 64.5214 66.2607 64.3674 65.9915 64.3158C65.7223 64.2642 65.4436 64.3191 65.214 64.4689C64.0745 65.2103 62.9171 65.9236 61.7426 66.6082C61.6304 66.6766 61.5329 66.7665 61.4556 66.8727C61.3783 66.9789 61.3228 67.0993 61.2921 67.2271C61.2615 67.3548 61.2564 67.4874 61.2771 67.6171C61.2979 67.7468 61.344 67.8712 61.4129 67.983C61.7033 68.4519 62.3225 68.6125 62.8135 68.3451ZM69.9589 64.1325C71.1443 63.3755 72.3014 62.575 73.4277 61.7326C73.8821 61.3928 73.9213 60.8087 73.5157 60.4287C73.1101 60.0478 72.4132 60.0153 71.9597 60.3552C70.8754 61.1648 69.7616 61.9342 68.6206 62.6618C68.1689 62.9804 68.0946 63.5397 68.4524 63.9334C68.8111 64.3262 69.4737 64.4142 69.9588 64.1324L69.9589 64.1325ZM75.4106 59.7643C76.287 58.6389 77.0947 57.4616 77.8292 56.2389C78.0939 55.7437 77.9837 55.0912 77.5808 54.7531C77.1767 54.4148 76.62 54.5088 76.3125 54.9674C75.6229 56.1148 74.8643 57.2194 74.0409 58.275C73.6933 58.7224 73.7181 59.4174 74.0981 59.8292C74.4781 60.2417 75.064 60.2118 75.4106 59.7643ZM80.9292 51.2406C80.7225 51.7086 80.2375 51.8981 79.8344 51.6677C79.4312 51.4387 79.2554 50.8734 79.4364 50.3909C79.9078 49.238 80.2699 48.0766 80.5234 46.9058C80.6473 46.3967 81.0913 46.0961 81.5261 46.2268C81.9608 46.3574 82.2281 46.8733 82.1299 47.3891C81.8423 48.7054 81.4405 49.9941 80.9292 51.2406ZM82.1504 43.8109C82.0812 42.319 81.6508 40.8782 80.9061 39.6503C80.6397 39.2113 80.1119 39.1019 79.7285 39.4077C79.3441 39.7134 79.2502 40.3173 79.5166 40.757C80.0701 41.6674 80.3929 42.7263 80.4603 43.9321C80.5065 44.4505 80.901 44.8339 81.3553 44.8024C81.8096 44.7699 82.1606 44.3326 82.1495 43.8117L82.1504 43.8109ZM77.4286 36.2069C76.1873 35.6332 74.8668 35.2494 73.5114 35.0686C73.3482 35.0424 73.181 35.0567 73.0246 35.1103C72.8683 35.1639 72.7275 35.2552 72.6147 35.3761C72.5102 35.489 72.4409 35.6298 72.4151 35.7814C72.3893 35.9331 72.4082 36.0889 72.4695 36.23C72.5951 36.5186 72.8829 36.7227 73.2211 36.7663C74.3808 36.92 75.5038 37.2446 76.5457 37.7271C76.8479 37.8841 77.222 37.8799 77.5192 37.7151C77.8172 37.5503 77.9906 37.2515 77.9717 36.9371C77.953 36.622 77.7445 36.3418 77.4286 36.2069ZM68.4618 35.0745C66.7785 35.4204 65.343 36.1591 64.3567 37.2522C64.1005 37.534 63.9946 37.9542 64.0765 38.353C64.1586 38.7519 64.4164 39.0704 64.7537 39.1865C65.0911 39.3035 65.4566 39.2019 65.7119 38.9192C66.39 38.1703 67.4737 37.6117 68.8042 37.3384C69.3405 37.2275 69.6983 36.6322 69.6036 36.0063C69.5097 35.3819 68.9972 34.9644 68.4618 35.0754V35.0745ZM64.0902 41.9423C64.4514 43.1849 65.2345 44.4907 66.4387 45.8511C66.8144 46.2755 67.4609 46.314 67.8828 45.9365C68.3054 45.5589 68.3439 44.9091 67.9682 44.4846C66.9502 43.3352 66.3216 42.2873 66.0552 41.3677C66.1782 41.238 66.265 41.0784 66.3069 40.9047C66.3488 40.731 66.3444 40.5494 66.2941 40.378C66.2438 40.2065 66.1494 40.0513 66.0202 39.9278C65.8911 39.8043 65.7318 39.7169 65.5583 39.6743C65.3848 39.6317 65.2031 39.6354 65.0315 39.685C64.8599 39.7346 64.7043 39.8284 64.5803 39.9571C64.4563 40.0857 64.3682 40.2446 64.3249 40.418C64.2816 40.5913 64.2846 40.773 64.3335 40.9448C64.2092 41.0753 64.1213 41.236 64.0786 41.4111C64.0359 41.5861 64.0399 41.7693 64.0902 41.9423ZM68.6308 48.2516C69.8017 49.1607 71.1189 49.8637 72.5259 50.3302C72.8684 50.4412 73.2373 50.3353 73.4926 50.0527C73.7488 49.7692 73.8521 49.3523 73.7659 48.9579C73.6788 48.5642 73.4141 48.2525 73.0716 48.1414C71.8682 47.7412 70.7419 47.1388 69.741 46.3601C69.2842 46.0458 68.6915 46.196 68.3951 46.7016C68.0988 47.2072 68.2021 47.8903 68.6308 48.2516ZM77.555 50.372C77.222 50.3883 76.906 50.2072 76.7267 49.8973C76.6383 49.7419 76.5886 49.5675 76.5816 49.3889C76.5746 49.2103 76.6106 49.0326 76.6865 48.8707C76.8403 48.5454 77.1409 48.3353 77.4739 48.319C78.6478 48.2539 79.8069 48.026 80.918 47.6419C81.077 47.5839 81.2496 47.5735 81.4145 47.6121C81.5794 47.6506 81.7294 47.7363 81.8463 47.8588C82.0975 48.1106 82.2033 48.4942 82.1239 48.858C82.0445 49.2218 81.7917 49.5086 81.4638 49.6086C80.1956 50.0441 78.8822 50.3011 77.5542 50.372H77.555ZM86.4895 48.8435C87.7433 48.1813 88.9525 47.4382 90.1096 46.6188C90.545 46.2823 90.6331 45.67 90.3103 45.2285C90.1527 45.0152 89.92 44.8698 89.6592 44.8214C89.3984 44.7731 89.129 44.8255 88.9054 44.9681C87.8219 45.7358 86.6894 46.4319 85.5151 47.0518C85.3492 47.1306 85.2077 47.2529 85.1058 47.4056C85.0038 47.5584 84.9452 47.736 84.9361 47.9194C84.919 48.291 85.1102 48.6419 85.4339 48.834C85.5934 48.9287 85.7751 48.9793 85.9606 48.9808C86.146 48.9823 86.3285 48.9346 86.4895 48.8426V48.8435ZM92.3752 43.2131C93.5372 42.4272 94.6687 41.5971 95.7672 40.7245C96.1909 40.3718 96.1729 39.8219 95.7271 39.4863C95.2812 39.1498 94.5699 39.1506 94.125 39.4863C93.0695 40.3244 91.9824 41.122 90.8662 41.8774C90.4161 42.2045 90.3811 42.7485 90.7876 43.1072C91.1941 43.4676 91.8952 43.5137 92.3752 43.2131ZM97.7049 38.8807C98.5295 37.7402 99.3225 36.5772 100.083 35.3931C100.371 34.9072 100.28 34.2419 99.8758 33.8858C99.4719 33.5306 98.8997 33.6126 98.5811 34.0711C97.8436 35.2213 97.0739 36.3504 96.2729 37.4572C95.9628 37.9226 96.0217 38.5913 96.406 38.973C96.7903 39.3547 97.3625 39.3147 97.7049 38.8807ZM103.504 31.779C104.258 30.6245 104.983 29.4514 105.678 28.2606C105.768 28.1049 105.817 27.9285 105.82 27.7483C105.823 27.5681 105.78 27.3902 105.695 27.2315C105.611 27.0749 105.487 26.9433 105.336 26.8504C105.185 26.7575 105.012 26.7066 104.834 26.7029C104.475 26.6969 104.141 26.8873 103.957 27.2034C103.278 28.365 102.571 29.5097 101.836 30.6363C101.729 30.7874 101.664 30.9641 101.647 31.1484C101.631 31.3328 101.663 31.5182 101.742 31.6859C101.9 32.0275 102.228 32.2513 102.596 32.2709C102.963 32.2905 103.312 32.1019 103.504 31.779H103.504ZM107.498 24.7814C107.853 24.0396 108.197 23.2928 108.531 22.5414C108.721 22.0512 108.536 21.4791 108.112 21.2399C107.686 21.0008 107.17 21.1776 106.935 21.6421C106.609 22.3759 106.273 23.1053 105.927 23.8301C105.694 24.3186 105.856 24.9274 106.29 25.1905C106.724 25.4535 107.265 25.2699 107.498 24.7814Z" fill="#CCCCCC"/>
<path d="M71.707 16.9564C70.4151 16.9548 69.1765 16.4409 68.263 15.5274C67.3495 14.6139 66.8356 13.3754 66.834 12.0835C66.8353 10.7914 67.3491 9.55267 68.2627 8.63897C69.1762 7.72528 70.4149 7.21127 71.707 7.20972C72.9991 7.21107 74.238 7.72499 75.1517 8.6387C76.0654 9.55241 76.5794 10.7913 76.5807 12.0835C76.5791 13.3755 76.0651 14.6142 75.1514 15.5277C74.2377 16.4412 72.999 16.955 71.707 16.9564ZM71.707 8.99972C70.8895 9.00037 70.1057 9.32537 69.5277 9.90338C68.9497 10.4814 68.6246 11.2652 68.624 12.0826C68.6246 12.9 68.9497 13.6838 69.5277 14.2618C70.1057 14.8398 70.8895 15.1648 71.707 15.1655C72.5244 15.1648 73.3081 14.8398 73.8861 14.2618C74.4641 13.6838 74.7891 12.9 74.7898 12.0826C74.7891 11.2652 74.4641 10.4814 73.8861 9.90342C73.3081 9.32541 72.5244 9.0004 71.707 8.99972Z" fill="#D8D8D8"/>
</g>
<defs>
<clipPath id="clip0_49_2107">
<rect width="128" height="128" fill="white"/>
</clipPath>
</defs>
</svg>
