<?xml version="1.0" standalone="no"?><!DOCTYPE svg PUBLIC "-//W3C//DTD SVG 1.1//EN" "http://www.w3.org/Graphics/SVG/1.1/DTD/svg11.dtd"><svg t="1724338526629" class="icon" viewBox="0 0 1024 1024" version="1.1" xmlns="http://www.w3.org/2000/svg" p-id="9192" xmlns:xlink="http://www.w3.org/1999/xlink" width="200" height="200"><path d="M512 192h512v832H576z" fill="#CFD8DC" p-id="9193" data-spm-anchor-id="a313x.search_index.0.i2.501a3a81Lnhlv1" class="selected"></path><path d="M580.48 497.28h62.336a353.536 353.536 0 0 0 78.976 147.2 535.552 535.552 0 0 1-145.536 67.2 581.824 581.824 0 0 1 38.4 56.32 595.2 595.2 0 0 0 152.576-80.64 490.688 490.688 0 0 0 150.144 78.08 583.168 583.168 0 0 1 42.624-56.96 435.968 435.968 0 0 1-147.2-62.72 407.488 407.488 0 0 0 84.224-148.48h57.6v-52.48h-147.2c-4.992-14.72-12.352-34.56-22.016-60.8l-59.264 12.16c6.848 19.2 12.288 35.84 16.256 48.64H580.48v52.48z m186.752 109.44a272.704 272.704 0 0 1-64.64-109.44h128.96a262.912 262.912 0 0 1-64 109.44z" fill="#4A6572" p-id="9194" data-spm-anchor-id="a313x.search_index.0.i1.501a3a81Lnhlv1" class="selected"></path><path d="M0 0v832h768L448 0H0z" fill="#209AF6" p-id="9195" data-spm-anchor-id="a313x.search_index.0.i3.501a3a81Lnhlv1" class="selected"></path><path d="M448 832h320l-192 192z" fill="#3A54B9" p-id="9196"></path><path d="M330.304 256.64H248.32L128.512 576H204.16l24.064-73.6h118.976L371.712 576H448zM243.456 449.92l37.376-111.36a122.368 122.368 0 0 0 5.76-26.88h1.856a121.6 121.6 0 0 0 5.056 27.52l37.184 110.72H243.2z" fill="#FFFFFF" p-id="9197" data-spm-anchor-id="a313x.search_index.0.i0.501a3a81Lnhlv1" class="selected"></path></svg>