<?xml version="1.0" standalone="no"?><!DOCTYPE svg PUBLIC "-//W3C//DTD SVG 1.1//EN" "http://www.w3.org/Graphics/SVG/1.1/DTD/svg11.dtd"><svg t="1725415120292" class="icon" viewBox="0 0 1024 1024" version="1.1" xmlns="http://www.w3.org/2000/svg" p-id="3997" data-spm-anchor-id="a313x.search_index.0.i1.3d473a81RBzfQE" xmlns:xlink="http://www.w3.org/1999/xlink" width="200" height="200"><path d="M512 810.666667H256c-25.6 0-42.666667-17.066667-42.666667-42.666667V256c0-25.6 17.066667-42.666667 42.666667-42.666667h256c25.6 0 42.666667-17.066667 42.666667-42.666666s-17.066667-42.666667-42.666667-42.666667H256C183.466667 128 128 183.466667 128 256v512c0 72.533333 55.466667 128 128 128h256c25.6 0 42.666667-17.066667 42.666667-42.666667s-17.066667-42.666667-42.666667-42.666666z" p-id="3998" data-spm-anchor-id="a313x.search_index.0.i2.3d473a81RBzfQE" class="selected" fill="#8a8a8a"></path><path d="M896 512c0-4.266667 0-12.8-4.266667-17.066667v-4.266666c0-4.266667-4.266667-8.533333-8.533333-12.8L704 298.666667c-17.066667-17.066667-42.666667-17.066667-59.733333 0s-17.066667 42.666667 0 59.733333l106.666666 106.666667H426.666667c-21.333333 0-42.666667 21.333333-42.666667 42.666666s21.333333 42.666667 42.666667 42.666667h324.266666l-106.666666 106.666667c-17.066667 17.066667-17.066667 42.666667 0 59.733333 17.066667 17.066667 42.666667 17.066667 59.733333 0l179.2-179.2c4.266667-4.266667 4.266667-8.533333 8.533333-12.8v-4.266667c4.266667 4.266667 4.266667-4.266667 4.266667-8.533333z" p-id="3999" data-spm-anchor-id="a313x.search_index.0.i0.3d473a81RBzfQE" class="selected" fill="#8a8a8a"></path></svg>